# xmcd
#
# Track frame offsets: 
#        150
#        32642
#        52830
#        73353
#        94232
#        108326
#        123831
#        141724
#        161286
#        180864
#        197430
#        219161
#
# Disc length: 3212 seconds
#
# Revision: 0
# Processed by: cddbd v1.5.2PL0 Copyright (c) Steve Scherf et al.
# Submitted via: ExactAudioCopyFreeDBPlugin 1.0
#
DISCID=9f0c8a0c
DTITLE=Tinariwen - Live In Paris
DYEAR=2015
DGENRE=Ethnic
TTITLE0=Tinde [Tinariwen feat. Lalla Badi]
TTITLE1=Tamiditin
TTITLE2=Koudedazamin
TTITLE3=Imidiwan Ahi Sigidam
TTITLE4=Tamatant Tiley
TTITLE5=Tinde [Lalla Badi]
TTITLE6=Azawad
TTITLE7=Chaghaybou
TTITLE8=Toumast Tincha
TTITLE9=Tiwayyen
TTITLE10=Emin Assosam
TTITLE11=Tinde Final [Tinariwen feat. Lalla Badi]
EXTD=
EXTT0=
EXTT1=
EXTT2=
EXTT3=
EXTT4=
EXTT5=
EXTT6=
EXTT7=
EXTT8=
EXTT9=
EXTT10=
EXTT11=
PLAYORDER=
